# File created by Blade
# Date/Time:  Fri Jan 16 17:52:57 2015
#---------------------------------------------------------
:version 1.10
:name HOM
:units
  mass 1.0
  length 1.000000
  angle deg
:documentation
     Acclaim Skeleton File
:root
   axis xyz
   order TX TY TZ RX RY RZ
   position 0.000000 0.000000 0.000000
   orientation 0 0 0
:bonedata
   begin
      id 1
      name Spine_dum
      direction 0.000000 1.000000 0.000000
      length 7.170412
      axis 0.0 0.0 0.0 xyz
   end
   begin
      id 2
      name LeftUpLeg_dum
      direction 1.000000 0.000000 0.000000
      length 4.318350
      axis 0.0 0.0 0.0 xyz
   end
   begin
      id 3
      name RightUpLeg_dum
      direction -1.000000 0.000000 0.000000
      length 4.318350
      axis 0.0 0.0 0.0 xyz
   end
   begin
      id 4
      name Spine
      direction 0.000000 1.000000 0.000000
      length 0.000000
      axis 0.0 0.0 0.0 xyz
      dof rx ry rz
   end
   begin
      id 5
      name Spine_dum1
      direction 0.000000 1.000000 0.000000
      length 14.276153
      axis 0.0 0.0 0.0 xyz
   end
   begin
      id 6
      name Spine_dum2
      direction 0.000000 1.000000 0.000000
      length 10.718243
      axis 0.0 0.0 0.0 xyz
   end
   begin
      id 7
      name Spine_dum3
      direction 0.000000 1.000000 0.000000
      length 10.718243
      axis 0.0 0.0 0.0 xyz
   end
   begin
      id 8
      name Head
      direction 0.000000 1.000000 0.000000
      length 4.527550
      axis 0.0 0.0 0.0 xyz
      dof rx ry rz
   end
   begin
      id 9
      name LeftShoulder
      direction 1.000000 0.000000 0.000000
      length 7.058872
      axis 0.0 0.0 -90.0 xyz
      dof rx ry rz
   end
   begin
      id 10
      name LeftArm
      direction 1.000000 0.000000 0.000000
      length 10.955525
      axis 0.0 0.0 -90.0 xyz
      dof rx ry rz
   end
   begin
      id 11
      name LeftForeArm
      direction 1.000000 0.000000 0.000000
      length 8.193716
      axis 0.0 0.0 -90.0 xyz
      dof ry rz rx
   end
   begin
      id 12
      name LeftHand
      direction 0.000000 0.000000 0.000000
      length 0.000000
      axis 0.0 0.0 -90.0 xyz
      dof rx ry rz
   end
   begin
      id 13
      name LeftHand_dum1
      direction 0.000000 0.000000 0.000000
      length 0.000000
      axis 0.0 0.0 -90.0 xyz
   end
   begin
      id 14
      name LeftHand_dum2
      direction 1.000000 0.000000 0.000000
      length 3.937000
      axis 0.0 0.0 -90.0 xyz
   end
   begin
      id 15
      name LeftHandThumb1
      direction 0.000000 0.000000 1.000000
      length 3.937000
      axis 0.0 0.0 -90.0 xyz
      dof rx rz ry
   end
   begin
      id 16
      name RightShoulder
      direction -1.000000 0.000000 0.000000
      length 7.058872
      axis 0.0 0.0 90.0 xyz
      dof rx ry rz
   end
   begin
      id 17
      name RightArm
      direction -1.000000 0.000000 0.000000
      length 10.955525
      axis 0.0 0.0 90.0 xyz
      dof rx ry rz
   end
   begin
      id 18
      name RightForeArm
      direction -1.000000 0.000000 0.000000
      length 8.193716
      axis 0.0 0.0 90.0 xyz
      dof ry rz rx
   end
   begin
      id 19
      name RightHand
      direction 0.000000 0.000000 0.000000
      length 0.000000
      axis 0.0 0.0 90.0 xyz
      dof rx ry rz
   end
   begin
      id 20
      name RightHand_dum1
      direction 0.000000 0.000000 0.000000
      length 0.000000
      axis 0.0 0.0 90.0 xyz
   end
   begin
      id 21
      name RightHand_dum2
      direction -1.000000 0.000000 0.000000
      length 3.937000
      axis 0.0 0.0 90.0 xyz
   end
   begin
      id 22
      name RightHandThumb1
      direction 0.000000 0.000000 1.000000
      length 3.937000
      axis 0.0 0.0 90.0 xyz
      dof rx rz ry
   end
   begin
      id 23
      name LeftUpLeg
      direction 0.000000 -1.000000 0.000000
      length 17.323638
      axis 0.0 0.0 0.0 xyz
      dof rx ry rz
   end
   begin
      id 24
      name LeftLeg
      direction 0.000000 -1.000000 0.000000
      length 16.270368
      axis 0.0 0.0 0.0 xyz
      dof rx ry rz
   end
   begin
      id 25
      name LeftFoot
      direction 0.000000 -0.258819 0.965926
      length 4.922846
      axis 15.0 0.0 0.0 xyz
      dof rx ry rz
   end
   begin
      id 26
      name LeftToeBase
      direction 0.000000 0.000000 1.000000
      length 2.952750
      axis 0.0 0.0 0.0 xyz
      dof rx ry rz
   end
   begin
      id 27
      name RightUpLeg
      direction 0.000000 -1.000000 0.000000
      length 17.323638
      axis 0.0 0.0 0.0 xyz
      dof rx ry rz
   end
   begin
      id 28
      name RightLeg
      direction 0.000000 -1.000000 0.000000
      length 16.270368
      axis 0.0 0.0 0.0 xyz
      dof rx ry rz
   end
   begin
      id 29
      name RightFoot
      direction 0.000000 -0.258819 0.965926
      length 4.922846
      axis 15.0 0.0 0.0 xyz
      dof rx ry rz
   end
   begin
      id 30
      name RightToeBase
      direction 0.000000 0.000000 1.000000
      length 2.952750
      axis 0.0 0.0 0.0 xyz
      dof rx ry rz
   end
:hierarchy
   begin
      root Spine_dum LeftUpLeg_dum RightUpLeg_dum
      Spine_dum Spine
      LeftUpLeg_dum LeftUpLeg
      RightUpLeg_dum RightUpLeg
      Spine Spine_dum1 Spine_dum2 Spine_dum3
      Spine_dum1 Head
      Spine_dum2 LeftShoulder
      Spine_dum3 RightShoulder
      LeftShoulder LeftArm
      LeftArm LeftForeArm
      LeftForeArm LeftHand
      LeftHand LeftHand_dum1 LeftHand_dum2
      LeftHand_dum1 LeftHandThumb1
      RightShoulder RightArm
      RightArm RightForeArm
      RightForeArm RightHand
      RightHand RightHand_dum1 RightHand_dum2
      RightHand_dum1 RightHandThumb1
      LeftUpLeg LeftLeg
      LeftLeg LeftFoot
      LeftFoot LeftToeBase
      RightUpLeg RightLeg
      RightLeg RightFoot
      RightFoot RightToeBase
   end

# File created by Blade
# Date/Time:  Fri Jan 16 17:53:05 2015
# Frame Rate: 120.000 fps
#------------------------------------------------------
:FULLY-SPECIFIED
:DEGREES
1
root -4.589714 35.450060 -11.861197 -1.686369 -8.660633 -6.176389
Spine 1.522005 2.214586 11.818860
Head -1.082783 6.394468 -6.185776
LeftShoulder -22.215331 11.493784 5.817066
LeftArm 33.035447 -52.415176 -29.781691
LeftForeArm 35.567205 0.000000 4.073179
LeftHand -8.223272 -0.000000 -7.165864
LeftHandThumb1 -26.253704 0.000000 33.147579
RightShoulder -6.295415 13.402789 -22.344826
RightArm 4.146426 19.033473 9.712988
RightForeArm -35.505543 -0.000000 15.717973
RightHand -2.319263 -0.000000 21.895520
RightHandThumb1 -24.326973 -0.000000 -32.862282
LeftUpLeg 11.163919 12.094046 2.972195
LeftLeg -9.709979 -0.000000 0.000000
LeftFoot -15.460614 32.638538 -10.054352
LeftToeBase 21.112658 -0.000000 -0.000000
RightUpLeg -0.595801 -0.010374 5.534277
RightLeg 13.931054 -0.000000 -0.000000
RightFoot -13.139559 -22.691156 9.382497
RightToeBase -3.092604 -0.000000 0.000000
2
root -4.572007 35.450556 -11.853089 -1.684319 -8.815666 -6.179641
Spine 1.532742 2.281139 11.813740
Head -1.104317 6.421927 -6.237956
LeftShoulder -22.247516 11.394171 5.869425
LeftArm 32.874013 -52.396362 -29.690224
LeftForeArm 35.545524 -0.000000 4.065236
LeftHand -8.177760 -0.000000 -7.146011
LeftHandThumb1 -26.253704 0.000000 33.147579
RightShoulder -6.269147 13.431251 -22.346284
RightArm 4.162681 18.900459 9.693114
RightForeArm -35.502715 -0.000000 15.774978
RightHand -2.444598 -0.000000 21.972363
RightHandThumb1 -24.326973 -0.000000 -32.862282
LeftUpLeg 11.191860 12.167725 2.942292
LeftLeg -9.699328 -0.000000 0.000000
LeftFoot -15.500583 32.716175 -10.091214
LeftToeBase 21.097934 -0.000000 -0.000000
RightUpLeg -0.817617 0.159319 5.435986
RightLeg 14.394217 -0.000000 -0.000000
RightFoot -13.830088 -22.151866 9.754246
RightToeBase -4.474042 -0.000000 0.000000
3
root -4.557306 35.451393 -11.844426 -1.694414 -8.913355 -6.174287
Spine 1.557025 2.282429 11.799048
Head -1.160986 6.509645 -6.297364
LeftShoulder -22.321513 11.491930 5.774576
LeftArm 32.910636 -52.571580 -29.684390
LeftForeArm 35.525967 0.000000 4.064975
LeftHand -8.187338 -0.000000 -7.158976
LeftHandThumb1 -26.253704 0.000000 33.147579
RightShoulder -6.254528 13.441081 -22.364372
RightArm 4.204349 18.871775 9.718372
RightForeArm -35.536970 0.000000 15.817926
RightHand -2.443430 -0.000000 21.865069
RightHandThumb1 -24.326973 -0.000000 -32.862282
LeftUpLeg 11.210916 12.262524 2.915299
LeftLeg -9.669440 -0.000000 0.000000
LeftFoot -15.526451 32.741969 -10.102318
LeftToeBase 21.079254 -0.000000 -0.000000
RightUpLeg -0.973653 0.290347 5.336397
RightLeg 14.719760 -0.000000 -0.000000
RightFoot -14.607324 -21.783436 9.915661
RightToeBase -5.067286 -0.000000 0.000000
4
root -4.546499 35.452675 -11.835551 -1.708590 -8.967427 -6.181648
Spine 1.574320 2.259684 11.811246
Head -1.198753 6.567694 -6.418557
LeftShoulder -22.356715 11.471560 5.744072
LeftArm 32.853738 -52.651702 -29.658389
LeftForeArm 35.561227 -0.000000 4.086513
LeftHand -8.221857 -0.000000 -7.203133
LeftHandThumb1 -26.253704 0.000000 33.147579
RightShoulder -6.232962 13.452858 -22.418473
RightArm 4.221562 18.838266 9.750559
RightForeArm -35.456643 -0.000000 15.789033
RightHand -2.341045 -0.000000 21.749488
RightHandThumb1 -24.326973 -0.000000 -32.862282
LeftUpLeg 11.233512 12.367850 2.910470
LeftLeg -9.646226 -0.000000 0.000000
LeftFoot -15.550371 32.719006 -10.120766
LeftToeBase 21.037484 -0.000000 -0.000000
RightUpLeg -1.062312 0.433337 5.261343
RightLeg 14.871555 -0.000000 -0.000000
RightFoot -15.387163 -21.792923 10.036259
RightToeBase -5.080231 -0.000000 0.000000
5
root -4.539576 35.454913 -11.826370 -1.741574 -8.978910 -6.204847
Spine 1.616398 2.187344 11.835350
Head -1.257700 6.619536 -6.533329
LeftShoulder -22.429936 11.445790 5.697047
LeftArm 32.857183 -52.668399 -29.636881
LeftForeArm 35.553405 -0.000000 4.063838
LeftHand -8.308059 0.000000 -7.226770
LeftHandThumb1 -26.253704 0.000000 33.147579
RightShoulder -6.197485 13.469571 -22.459622
RightArm 4.223276 18.834080 9.768502
RightForeArm -35.526327 -0.000000 15.789915
RightHand -2.391023 -0.000000 21.817029
RightHandThumb1 -24.326973 -0.000000 -32.862282
LeftUpLeg 11.266295 12.463463 2.931916
LeftLeg -9.612998 -0.000000 0.000000
LeftFoot -15.583924 32.668530 -10.132696
LeftToeBase 21.046645 -0.000000 -0.000000
RightUpLeg -1.093743 0.541663 5.216388
RightLeg 14.908161 -0.000000 -0.000000
RightFoot -16.087009 -21.963712 10.291393
RightToeBase -4.904441 -0.000000 0.000000
6
root -4.533493 35.457983 -11.813527 -1.786513 -8.972794 -6.231895
Spine 1.658884 2.109089 11.886086
Head -1.294865 6.671859 -6.682235
LeftShoulder -22.486185 11.283067 5.721684
LeftArm 32.781293 -52.581119 -29.642340
LeftForeArm 35.525291 -0.000000 4.091317
LeftHand -8.387152 -0.000000 -7.181642
LeftHandThumb1 -26.253704 0.000000 33.147579
RightShoulder -6.171223 13.508342 -22.552392
RightArm 4.194053 18.917152 9.818160
RightForeArm -35.589539 -0.000000 15.830199
RightHand -2.455779 -0.000000 21.918474
RightHandThumb1 -24.326973 -0.000000 -32.862282
LeftUpLeg 11.316373 12.579118 2.963945
LeftLeg -9.581825 -0.000000 0.000000
LeftFoot -15.574779 32.607813 -10.090500
LeftToeBase 21.021549 -0.000000 -0.000000
RightUpLeg -1.062775 0.630029 5.182629
RightLeg 14.809341 -0.000000 -0.000000
RightFoot -16.622509 -22.334249 10.449888
RightToeBase -4.937432 -0.000000 0.000000
7
root -4.531024 35.462092 -11.798789 -1.839341 -8.931367 -6.272300
Spine 1.695613 2.010816 11.963199
Head -1.309685 6.693588 -6.868886
LeftShoulder -22.541706 11.298664 5.630955
LeftArm 32.827106 -52.601864 -29.670379
LeftForeArm 35.405289 -0.000000 4.068075
LeftHand -8.404651 -0.000000 -7.138380
LeftHandThumb1 -26.253704 0.000000 33.147579
RightShoulder -6.131784 13.569007 -22.659484
RightArm 4.143136 18.895120 9.841585
RightForeArm -35.536782 0.000000 15.800089
RightHand -2.338260 -0.000000 21.775351
RightHandThumb1 -24.326973 -0.000000 -32.862282
LeftUpLeg 11.376146 12.678319 3.018559
LeftLeg -9.556026 -0.000000 0.000000
LeftFoot -15.579707 32.513226 -10.079915
LeftToeBase 20.991428 -0.000000 -0.000000
RightUpLeg -0.975069 0.685690 5.173014
RightLeg 14.599086 -0.000000 -0.000000
RightFoot -17.163167 -22.927870 10.472475
RightToeBase -4.361443 -0.000000 0.000000
8
root -4.530426 35.467245 -11.782873 -1.878591 -8.877818 -6.323432
Spine 1.704153 1.908032 12.069341
Head -1.299694 6.726414 -7.091275
LeftShoulder -22.579470 11.297054 5.524617
LeftArm 32.824383 -52.608141 -29.660176
LeftForeArm 35.354835 -0.000000 4.079918
LeftHand -8.438172 -0.000000 -7.098034
LeftHandThumb1 -26.253704 0.000000 33.147579
RightShoulder -6.075241 13.601236 -22.765721
RightArm 4.089057 18.892900 9.839024
RightForeArm -35.451130 -0.000000 15.736963
RightHand -2.316906 -0.000000 21.714215
RightHandThumb1 -24.326973 -0.000000 -32.862282
LeftUpLeg 11.425804 12.786647 3.088993
LeftLeg -9.533184 -0.000000 0.000000
LeftFoot -15.583304 32.401569 -10.078905
LeftToeBase 20.988002 -0.000000 -0.000000
RightUpLeg -0.874106 0.719793 5.187170
RightLeg 14.298669 -0.000000 -0.000000
RightFoot -17.649724 -23.557234 10.794887
RightToeBase -3.976659 -0.000000 0.000000
9
root -4.531773 35.472101 -11.763919 -1.921811 -8.828598 -6.373451
Spine 1.706130 1.829059 12.179128
Head -1.270040 6.743228 -7.314502
LeftShoulder -22.632217 11.319065 5.401284
LeftArm 32.892623 -52.587598 -29.681427
LeftForeArm 35.264120 -0.000000 4.056785
LeftHand -8.469263 -0.000000 -7.101397
LeftHandThumb1 -26.253704 0.000000 33.147579
RightShoulder -6.036311 13.628787 -22.879289
RightArm 4.035813 18.925060 9.842437
RightForeArm -35.441710 -0.000000 15.733674
RightHand -2.366737 0.000000 21.907414
RightHandThumb1 -24.326973 -0.000000 -32.862282
LeftUpLeg 11.494918 12.884271 3.160609
LeftLeg -9.526798 -0.000000 0.000000
LeftFoot -15.522548 32.323477 -9.972257
LeftToeBase 20.980753 -0.000000 -0.000000
RightUpLeg -0.735016 0.693987 5.208303
RightLeg 13.918755 -0.000000 -0.000000
RightFoot -17.995477 -24.180885 10.976134
RightToeBase -3.525601 -0.000000 0.000000
